/* XPM */
static char *_8c6e85269bc468ad3d4014c5cb1fc96H79oopXSJVB9SUvc[] = {
/* columns rows colors chars-per-pixel */
"64 64 120 2 ",
"   c None",
".  c #A51419",
"X  c #AC141A",
"o  c #B4151B",
"O  c #BB161C",
"+  c #C4171E",
"@  c #CD181F",
"#  c #D51920",
"$  c #DC1B22",
"%  c #E41B23",
"&  c #ED1C24",
"*  c #DD262D",
"=  c #E2252C",
"-  c #ED232A",
";  c #EE282F",
":  c #E42D34",
">  c #ED2C33",
",  c #EF3037",
"<  c #E73239",
"1  c #EE343B",
"2  c #E73B41",
"3  c #ED3A41",
"4  c #F03E45",
"5  c #ED454C",
"6  c #F04047",
"7  c #F0454C",
"8  c #EC4E54",
"9  c #F14A51",
"0  c #EF5157",
"q  c #EC555B",
"w  c #EE585D",
"e  c #F15056",
"r  c #F1555A",
"t  c #F35E64",
"y  c #F4656A",
"u  c #F46D71",
"i  c #F47176",
"p  c #F5767B",
"a  c #F4797E",
"s  c #053D87",
"d  c #073F88",
"f  c #083F88",
"g  c #0D438A",
"h  c #11468D",
"j  c #164A8F",
"k  c #1D4F92",
"l  c #1D5092",
"z  c #245596",
"x  c #2C5C9A",
"c  c #315F9C",
"v  c #34629E",
"b  c #4C74A9",
"n  c #577DAF",
"m  c #F57D81",
"M  c #F97F82",
"N  c #6285B3",
"B  c #698BB7",
"V  c #6D8FBA",
"C  c #7393BC",
"Z  c #7D9AC1",
"A  c #F58186",
"S  c #F58589",
"D  c #F68D91",
"F  c #F69296",
"G  c #F79599",
"H  c #F79A9D",
"J  c #F8A7AA",
"K  c #F8ABAE",
"L  c #F9ADB0",
"P  c #FAB1B4",
"I  c #FAB6B9",
"U  c #FABABD",
"Y  c #87A3C6",
"T  c #92AACA",
"R  c #9DB5D2",
"E  c #A1B6D2",
"W  c #FABEC0",
"Q  c #ADC1D9",
"!  c #B4C5DB",
"~  c #B9C9DE",
"^  c #BECCE0",
"/  c #FAC0C3",
"(  c #FBC7C9",
")  c #FCCCCE",
"_  c #FBD2D3",
"`  c #FCDCDD",
"'  c #C3CFE1",
"]  c #C7D3E4",
"[  c #CBD7E6",
"{  c #D3D9E6",
"}  c #FDDFE1",
"|  c #DBE3EE",
" . c #E1E0E9",
".. c #FCE3E4",
"X. c #FDE7E8",
"o. c #F1EAEE",
"O. c #FDEBEC",
"+. c #E5ECF4",
"@. c #EBEFF5",
"#. c #EAEFF5",
"$. c #ECF0F6",
"%. c #EDF1F6",
"&. c #ECF4F9",
"*. c #FFF1F1",
"=. c #FEF2F3",
"-. c #FEF6F7",
";. c #FFF7F8",
":. c #F6F8FB",
">. c #FFF9F9",
",. c #FAFBFD",
"<. c #FBFCFD",
"1. c #F9FEFF",
"2. c #FFFCFC",
"3. c #FFFDFD",
"4. c #FCFDFE",
"5. c #FDFFFF",
"6. c #FEFEFE",
"7. c #FFFEFE",
"8. c #FEFEFF",
"9. c white",
/* pixels */
"                                                                                                                                ",
"                                                                                                                                ",
"                                                                                                                                ",
"                                                  q w r e 9 7 6 7 7 9 e r w q                                                   ",
"                                            9 e 7 4 - - & & & & & & & & - ; 1 9 e e                                             ",
"                                        9 9 1 - & & & & & & & & & & & & & & & & - , 9 8                                         ",
"                                    5 7 , & & & & & & & & & & & & & & & & & & & & & & , 7 7                                     ",
"                                  5 , & & & & & & & & & & & & & & & & & & & & & & & & & & , 7                                   ",
"                              2 4 - & & & & & & & & & & & & & & & & & & & & & & & & & & & & ; 4 2                               ",
"                            1 1 & & & & & & & & & & & & & & & & & & & & & & & & & & & & & & & & 1 2                             ",
"                          < , & & & & & & & & & & & & & & & & & & & & & & & & & & & & & & & & & & > 1                           ",
"                        < > & & & & & & & & & & & & & & & & & & & & & & & & & & & & & & & & & & & & > <                         ",
"                      : , & & & & & & & & & & & & & & & & & & & & & & & & & & & & & & & & & & & & & & > :                       ",
"                    * > & & & & & & & & & & & & & & & & & & & & & & & & & & & & & & & & & & & & & & & & > *                     ",
"                    : & & & & & & & & & & & & & & & & & & & & & & & & & & & & & & & & & & & & & & & & & - >                     ",
"                  = ; & & & & & & & & & & & & & & & & & & & & & & & & & & & & & & & & & & & & & & & & & & - =                   ",
"                  ; & & & & & & & & & & & & & & & & & & & & & & & & & & & & & & & & & & & & & & & & & - & & ;                   ",
"                - - & & & & & & & & & & & & & & & & & & & & & & & & & & & & & & & & & & & & & & & & & & & & & =                 ",
"                - & & & & & & & & & & & & & & & & & & & & & & & & & & & & & & & & & & & & & & & & & & & & & & -                 ",
"              * - & & & & & & & & & & & & & & 4 u D D m 8 - & & & & & & & & & & & & & & & 3 i D D a 7 - & & & & $               ",
"              % & & & & & & & & & & & & & > D ..7.7.7.7.=.U e & & & & & & & & & & & & 1 H X.7.7.7.7.*.L 5 & & & =               ",
"              - & & & & & & & & & & & & , I 7.7.7.7.7.7.7.7...y & & & & & & & & & & 4 ( 7.7.7.7.7.7.7.7.` r & & &               ",
"            $ & & & & & & & & & & & & - J 7.7.7.7.7.7.7.7.7.7...9 & & & & & & & & > U 7.7.7.7.7.7.7.7.7.7._ 4 & & $             ",
"            $ & & & & & & & & & & & & t ;.7.7.7.7.7.5.~ C C ! 5.L - & & & & & & & p 7.7.7.7.7.7.:.Q C C ~ 7.H & & $             ",
"            % & & & & & & & & & & & & K 7.7.7.7.7.7.T j s s g Y O.7 & & & & & & - / 7.7.7.7.7.5.C g s s j R ` 1 & %             ",
"            % & & & & & & & & & & & > _ 7.7.7.7.7.| z s f f s l { u & & & & & & 4 ..7.7.7.7.7.] k s s f s c  .r & %             ",
"            % & & & & & & & & & & & 1 } 7.7.7.7.7.~ g d f f d g E A & & & & & & 7 O.7.7.7.7.7.E g f f f f h ' y & %             ",
"            & & & & & & & & & & & & , ` 7.7.7.7.7.[ j d f d d g ] p & & & & & & 4 O.7.7.7.7.7.! g s f g s l { t & &             ",
"            % & & & & & & & & & & & - U 7.7.7.7.7.:.N s s d s n O.e & & & & & & > _ 7.7.7.7.7.$.b s s s g V X.6 & &             ",
"            & & & & & & & & & & & & & p 7.7.7.7.7.7.#.C v c V +.( & & & & & & & & G 7.7.7.7.7.7.| B v v C &.I - & &             ",
"            & & & & & & & - & & & & & , ) 7.7.7.7.7.7.7.$.$.5.>.u & & & & & & & & 3 ` 7.7.7.7.7.7.5.#.%.7.=.r & & %             ",
"            % & & & & & & & & & & & & & r ..7.7.7.7.7.7.7.7.7.G - & & & & & & & & & y O.7.7.7.7.7.7.7.7.-.A & & & &             ",
"            & & & & & & & & & & & & & & & 9 ( 2.7.7.7.7.7.X.S ; & & & & & & & & - & & t ) 7.7.7.7.7.7...p & & & & &             ",
"            & & & & & & & & & & & & & & & & > u L ( _ W D 9 & & & & & & & & & & & & & & 1 p P ) _ U A 4 & & & & & &             ",
"            & & & & & & & & & & & & & & & & & & & > ; - & & & & & & & & & & & & & & & & & & & ; > & & & & & & & & %             ",
"            & & & & & & & & & - & & & & & & & & & & & & & & & & & & & & & & & & & & & & & & & & & & & & & & & & & &             ",
"            & & & & & & & & & & & & & & & & & & & & & & & & & & & & & & & & & & & & & & & & & & & & & & & & & & & &             ",
"            & & & & & & & & & & & & & & & & & & & & & & & & & & & & & & & & & & & & & & & & & & & & & & & & & & & &             ",
"            & & & & & & & & & & & & & & & & & & & & & & & & & & & & & & & & & & & & & & & & & & & & & & & & & & & %             ",
"            & & & & & & & & & & & & & & & & & & & & & & & & & & & & & & & & & & & & & & & & & & & & & & & & & & & &             ",
"            & & & & & & & & & & & & & & - & & & & & & & & & & & & & & & & & & & & & & & & & & & & & & & & & & & & %             ",
"            % & & & & & & & & & & & & & & & & & & & & & & & & & & & & & & & & & & & & - & & & & & & & & & & & & & &             ",
"            & & & & & & & & & & & & & & & & & & & & & & & & & & & & & & & & & & & & & & & & & & & & & & & & & & & %             ",
"            % & & - & & & & & & & & & & & & & & & & & & & & & & & & & & & & & & & & & & & & & & & & & & & & & & & &             ",
"            & & & & & & & & & & & & & & & & & & & & & & & & & & & & & & & & & & & & & & & & & & & & & & & & - & & %             ",
"            % & & & & & & & & & & & & & & & & & & & & & & & & & & & & & & & & & & & & & & & & & & & & & & & & & & &             ",
"            & & & & & & & & & & & & & & & & & & & & & & & & & & & & & & & & & & & & & & & & & & & & & & & & & & & &             ",
"            % & & & & & & & & & & & & & & & & & & & & & & & & & & & & & & & & & & & & & & & & - & & & & & & & & & &             ",
"            & & & & & & & & & & & & & & & & & & & & & & & & & & & & & & & & & & & & & & & & & & & & & & & & & & & &             ",
"            % & & & & & & & & & & & & & & & & & & & & & & & & & & & & & & & & & & & & & & & & & & & & & & & & & & &             ",
"            & & & & & & & & & & & & & & & & & & & & & & & & & & & & & & & & & & & & & & & & & & & & & & & & & - & &             ",
"            % & & & & & & & & & & & & & & & & & & & & & & & & & & & & & & & & & & & & & & & & & & & & & & & & & & %             ",
"            % & & & & & & & & & & & & & & & & & & & & & & & & & & & & & & & & & & & & & & & & & & & & & & & & & & %             ",
"            & & & & & & & & & & & & & & & & & & & & & & & & & & & & & & & & & & & & & & & & & & & & & & & & & & & &             ",
"            & & & & & & & & & % $ % & & & & & & & & & & & & % $ $ % & & - & & & & & & & & & & % $ % & & & & & & & &             ",
"            % & & & & & & % +     . $ & & & & & & & & & - $ X     o $ & & & & & & & & & & & # .   . @ & & & & & & %             ",
"            % & & & & & % O           $ & & & & & & & & #             # & & & & & & & & & #           @ & & & & & %             ",
"            % & & & & % o             X $ & & & & & & % X               # & & & & & & & $               @ & & & & &             ",
"            $ & & & % O                 O & & & & & % +                 X % & & & & & % o                 # & & & %             ",
"            # & & & O                     + % & & & #                     O % & & & % O                     $ & & $             ",
"            X $ $ O                         O $ $ @                         o $ % # o                       X # $ O             ",
"                                                                                                                                ",
"                                                                                                                                ",
"                                                                                                                                "
};
