/* XPM */
static char *c097769139824ee7a9c57361c21a031d2zectTrR8sCVO3ch[] = {
/* columns rows colors chars-per-pixel */
"64 64 235 2 ",
"   c None",
".  c black",
"X  c #010100",
"o  c #020200",
"O  c #030300",
"+  c #040400",
"@  c #050400",
"#  c #050500",
"$  c #060500",
"%  c #060600",
"&  c #070700",
"*  c #080800",
"=  c #090900",
"-  c #0A0A00",
";  c #0B0B00",
":  c #0C0C00",
">  c #0D0C00",
",  c #0D0D00",
"<  c #0E0E00",
"1  c #101000",
"2  c #121200",
"3  c #131300",
"4  c #151500",
"5  c #171600",
"6  c #171700",
"7  c #181700",
"8  c #181800",
"9  c #191900",
"0  c #1B1A00",
"q  c #1B1B00",
"w  c #1D1D00",
"e  c #1E1D00",
"r  c #1E1E00",
"t  c #1F1E00",
"y  c #1F1F00",
"u  c #212100",
"i  c #222200",
"p  c #232200",
"a  c #232300",
"s  c #242400",
"d  c #252400",
"f  c #252500",
"g  c #262500",
"h  c #262600",
"j  c #282800",
"k  c #292900",
"l  c #2A2A00",
"z  c #2B2A00",
"x  c #2E2D00",
"c  c #2F2F00",
"v  c #303000",
"b  c #333200",
"n  c #343300",
"m  c #343400",
"M  c #363500",
"N  c #363600",
"B  c #373600",
"V  c #373700",
"C  c #383700",
"Z  c #383800",
"A  c #393800",
"S  c #3A3900",
"D  c #3B3A00",
"F  c #3C3B00",
"G  c #3E3D00",
"H  c #3E3E00",
"J  c #3F3F00",
"K  c #403F00",
"L  c #404000",
"P  c #414000",
"I  c #434300",
"U  c #454500",
"Y  c #464600",
"T  c #474600",
"R  c #484700",
"E  c #494800",
"W  c #4A4900",
"Q  c #4A4A00",
"!  c #4B4A00",
"~  c #4B4B00",
"^  c #4C4B00",
"/  c #4C4C00",
"(  c #4E4D00",
")  c #4E4E00",
"_  c #504F00",
"`  c #535200",
"'  c #545400",
"]  c #565500",
"[  c #575700",
"{  c #585700",
"}  c #595800",
"|  c #5A5900",
" . c #5A5A00",
".. c #5B5A00",
"X. c #5C5B00",
"o. c #5C5C00",
"O. c #5E5D00",
"+. c #5E5E00",
"@. c #5F5E00",
"#. c #606000",
"$. c #616000",
"%. c #636200",
"&. c #656400",
"*. c #676600",
"=. c #686700",
"-. c #6A6900",
";. c #6B6A00",
":. c #6C6B00",
">. c #6D6C00",
",. c #706F00",
"<. c #717000",
"1. c #727100",
"2. c #737200",
"3. c #757400",
"4. c #777600",
"5. c #7A7900",
"6. c #7B7A00",
"7. c #7C7B00",
"8. c #7D7C00",
"9. c #807F00",
"0. c #828100",
"q. c #858400",
"w. c #868500",
"e. c #888700",
"r. c #8E8D00",
"t. c #908F00",
"y. c #919000",
"u. c #929000",
"i. c #939100",
"p. c #939200",
"a. c #949300",
"s. c #979600",
"d. c #989700",
"f. c #999800",
"g. c #9A9900",
"h. c #9B9A00",
"j. c #9C9A00",
"k. c #9E9C00",
"l. c #9E9D00",
"z. c #9F9E00",
"x. c #A09E00",
"c. c #A09F00",
"v. c #A2A100",
"b. c #A3A100",
"n. c #A3A200",
"m. c #A4A200",
"M. c #A4A300",
"N. c #A5A400",
"B. c #A6A500",
"V. c #A7A600",
"C. c #A8A700",
"Z. c #A9A700",
"A. c #A9A800",
"S. c #ADAC00",
"D. c #AEAD00",
"F. c #B0AE00",
"G. c #B4B200",
"H. c #B6B400",
"J. c #B8B600",
"K. c #B9B700",
"L. c #BBB900",
"P. c #BBBA00",
"I. c #BEBC00",
"U. c #BEBD00",
"Y. c #BFBD00",
"T. c #BFBE00",
"R. c #C0BE00",
"E. c #C0BF00",
"W. c #C1C000",
"Q. c #C2C100",
"!. c #C3C100",
"~. c #C5C300",
"^. c #C5C400",
"/. c #C6C400",
"(. c #C6C500",
"). c #C7C600",
"_. c #C9C700",
"`. c #CBC900",
"'. c #CBCA00",
"]. c #CCCA00",
"[. c #CDCB00",
"{. c #CDCC00",
"}. c #CECD00",
"|. c #CFCD00",
" X c #D0CE00",
".X c #D1CF00",
"XX c #D2D000",
"oX c #D3D100",
"OX c #D4D200",
"+X c #D4D300",
"@X c #D5D300",
"#X c #D7D500",
"$X c #D7D600",
"%X c #D8D600",
"&X c #D9D700",
"*X c #DAD800",
"=X c #DBD900",
"-X c #DBDA00",
";X c #DCDA00",
":X c #DCDB00",
">X c #DDDB00",
",X c #DEDC00",
"<X c #DEDD00",
"1X c #E0DE00",
"2X c #E1DF00",
"3X c #E1E000",
"4X c #E2E000",
"5X c #E3E100",
"6X c #E3E200",
"7X c #E4E200",
"8X c #E5E300",
"9X c #E5E400",
"0X c #E6E400",
"qX c #E6E500",
"wX c #E7E500",
"eX c #E7E600",
"rX c #E8E600",
"tX c #E9E700",
"yX c #E9E800",
"uX c #EAE800",
"iX c #EBE900",
"pX c #EBEA00",
"aX c #ECEA00",
"sX c #ECEB00",
"dX c #EDEB00",
"fX c #EEEC00",
"gX c #EFED00",
"hX c #F0EE00",
"jX c #F1EF00",
"kX c #F2F000",
"lX c #F3F100",
"zX c #F4F200",
"xX c #F5F200",
"cX c #F5F300",
"vX c #F6F400",
/* pixels */
"                                                              . . . . . . . . . . .                                             ",
"                                                    . . . 1 s Z Q o.-.1.3.1.>.o./ D g 2 # . .                                   ",
"                                              . . 9 P ,.z.!.&XwXgXkXzXcXcXcXzXkXgXrX=X(.b.3.Q e # .                             ",
"                                        . . 0 ` g.[.uXzXcXzXzXzXkXkXkXkXkXkXkXkXkXzXkXcXcXcXdX.Xb.| a . .                       ",
"                                    . # n q.[.hXcXzXkXkXkXkXkXkXkXkXkXkXkXkXkXkXkXkXkXkXkXkXkXzXzXkX#Xi.G * .                   ",
"                                . + D g.2XzXzXkXkXkXkXkXkXkXkXkXkXkXkXkXkXkXkXkXkXkXkXkXkXkXkXkXkXkXkXcXwXV.R * .               ",
"                              . k a.7XcXzXhXkXkXkXkXkXkXkXkXkXkXkXkXkXkXkXkXkXkXkXkXkXkXkXkXkXkXkXkXkXkXkXcXuXb.V .             ",
"                          . , -.#XzXzXkXkXkXkXkXkXkXkXkXkXkXkXkXkXkXkXkXkXkXkXkXkXkXkXkXkXkXkXkXkXkXkXkXkXkXkXcX<X8.5 .         ",
"                        . k B.hXzXkXkXkXkXkXkXkXkXkXkXkXkXkXkXkXkXkXkXkXkXkXkXkXkXkXkXkXkXkXkXkXkXkXkXkXkXkXkXkXzXkXJ.D .       ",
"                      . Q {.cXkXkXkXkXkXkXkXkXkXkXkXkXkXkXkXkXkXkXkXkXkXkXkXkXkXkXkXkXkXkXkXkXkXkXkXkXkXkXkXkXkXkXkXcX=Xo.*     ",
"                    . &.3XcXkXkXkXkXkXkXkXkXkXkXkXkXkXkXkXkXkXkXkXkXkXkXkXkXkXkXkXkXkXkXkXkXkXkXkXkXkXkXkXkXkXkXkXkXkXcX:XD .   ",
"                  # 3.uXzXkXkXkXkXkXkXkXkXkXkXkXkXkXkXkXkXkXkXkXkXkXkXkXkXkXkXkXkXkXkXkXkXkXkXkXkXkXkXkXkXkXkXkXkXkXcX&X| #     ",
"                . 1.dXkXkXkXkXkXkXkXkXkXkXkXkXkXkXkXkXkXkXkXkXkXkXkXkXkXkXkXkXkXkXkXkXkXkXkXkXkXkXkXkXkXkXkXkXkXkXkXY.D .       ",
"              . &.uXkXkXkXkXkXkXkXkXkXkXkXkXkXkXkXkXkXkXkXkXkXkXkXkXkXkXkXkXkXkXkXkXkXkXkXkXkXkXkXkXkXkXkXkXkXkXkXb.e .         ",
"            . U 2XzXkXkXkXkXkXkXkXkXkXkXkXkXkXkXkXkXkXkXkXkXkXkXkXkXkXzXcXzXzXkXkXkXkXkXkXkXkXkXkXkXkXkXkXkXzXwX8., .           ",
"          . a `.zXkXkXkXkXkXkXkXkXkXkXkXkXkXkXkXkXkXkXkXkXkXkXkXkXkXzXOXB.g.P.uXzXkXkXkXkXkXkXkXkXkXkXkXkXzX&X| O               ",
"          * g.zXkXkXkXkXkXkXkXkXkXkXkXkXkXkXkXkXkXkXkXkXkXkXkXkXkXhXd.a # . , ] &XzXkXkXkXkXkXkXkXkXkXkXkXY.D .                 ",
"        . ] uXzXkXkXkXkXkXkXkXkXkXkXkXkXkXkXkXkXkXkXkXkXkXkXkXkXcXP.2 . . . . . %.hXkXkXkXkXkXkXkXkXkXkXb.y .                   ",
"      . 8 !.cXkXkXkXkXkXkXkXkXkXkXkXkXkXkXkXkXkXkXkXkXkXkXkXkXkXcX0.. . . . . . a :XzXhXkXkXkXkXkXkXrX8., .                     ",
"      . -.kXkXkXkXkXkXkXkXkXkXkXkXkXkXkXkXkXkXkXkXkXkXkXkXkXkXkXcXr.. . . . . . v 2XzXkXkXkXkXkXcX#X| O                         ",
"    . 5 (.cXkXkXkXkXkXkXkXkXkXkXkXkXkXkXkXkXkXkXkXkXkXkXkXkXkXkXzX#Xn . . . . # r.kXkXkXkXkXkXzXY.D .                           ",
"    . | hXkXkXkXkXkXkXkXkXkXkXkXkXkXkXkXkXkXkXkXkXkXkXkXkXkXkXkXkXzX[.o.s e D s.dXkXkXkXkXzXhXc.e .                             ",
"    # B.cXkXkXkXkXkXkXkXkXkXkXkXkXkXkXkXkXkXkXkXkXkXkXkXkXkXkXkXkXkXzXhX:X#XwXzXzXkXkXkXkXrX7., .                               ",
"  . k :XzXkXkXkXkXkXkXkXkXkXkXkXkXkXkXkXkXkXkXkXkXkXkXkXkXkXkXkXkXkXkXkXkXzXkXkXkXkXkXcX&X| .                                   ",
"  . X.hXkXkXkXkXkXkXkXkXkXkXkXkXkXkXkXkXkXkXkXkXkXkXkXkXkXkXkXkXkXkXkXkXkXkXkXkXkXkXzXY.D .                                     ",
"  . i.cXkXkXkXkXkXkXkXkXkXkXkXkXkXkXkXkXkXkXkXkXkXkXkXkXkXkXkXkXkXkXkXkXkXkXkXkXkXkXz.e .                                       ",
"  : P.zXkXkXkXkXkXkXkXkXkXkXkXkXkXkXkXkXkXkXkXkXkXkXkXkXkXkXkXkXkXkXkXkXkXkXkXzXwX6., .                                         ",
". e #XzXkXkXkXkXkXkXkXkXkXkXkXkXkXkXkXkXkXkXkXkXkXkXkXkXkXkXkXkXkXkXkXkXkXkXzX#X[ O                                             ",
". v 3XzXkXkXkXkXkXkXkXkXkXkXkXkXkXkXkXkXkXkXkXkXkXkXkXkXkXkXkXkXkXkXkXkXkXzXY.V .                                               ",
". K dXkXkXkXkXkXkXkXkXkXkXkXkXkXkXkXkXkXkXkXkXkXkXkXkXkXkXkXkXkXkXkXkXkXhXc.e .                                                 ",
". Q dXkXkXkXkXkXkXkXkXkXkXkXkXkXkXkXkXkXkXkXkXkXkXkXkXkXkXkXkXkXkXkXkXwX6., .                                                   ",
". / hXhXkXkXkXkXkXkXkXkXkXkXkXkXkXkXkXkXkXkXkXkXkXkXkXkXkXkXkXkXkXkXcXY.9 .                                                     ",
". U gXkXkXkXkXkXkXkXkXkXkXkXkXkXkXkXkXkXkXkXkXkXkXkXkXkXkXkXkXkXkXkXkXkXb.9 .                                                   ",
". G rXzXkXkXkXkXkXkXkXkXkXkXkXkXkXkXkXkXkXkXkXkXkXkXkXkXkXkXkXkXkXkXkXkXkXA.9 .                                                 ",
". z 2XkXkXkXkXkXkXkXkXkXkXkXkXkXkXkXkXkXkXkXkXkXkXkXkXkXkXkXkXkXkXkXkXkXkXzXD.e .                                               ",
". 9 {.zXkXkXkXkXkXkXkXkXkXkXkXkXkXkXkXkXkXkXkXkXkXkXkXkXkXkXkXkXkXkXkXkXkXkXcXG.a .                                             ",
"  # F.cXkXkXkXkXkXkXkXkXkXkXkXkXkXkXkXkXkXkXkXkXkXkXkXkXkXkXkXkXkXkXkXkXkXkXkXcXP.g .                                           ",
"  . q.vXkXkXkXkXkXkXkXkXkXkXkXkXkXkXkXkXkXkXkXkXkXkXkXkXkXkXkXkXkXkXkXkXkXkXkXkXzXY.k .                                         ",
"  . Q dXkXkXkXkXkXkXkXkXkXkXkXkXkXkXkXkXkXkXkXkXkXkXkXkXkXkXkXkXkXkXkXkXkXkXkXkXkXcX!.v .                                       ",
"  . 9 .XzXkXkXkXkXkXkXkXkXkXkXkXkXkXkXkXkXkXkXkXkXkXkXkXkXkXkXkXkXkXkXkXkXkXkXkXkXkXzX(.n .                                     ",
"    . i.cXkXkXkXkXkXkXkXkXkXkXkXkXkXkXkXkXkXkXkXkXkXkXkXkXkXkXkXkXkXkXkXkXkXkXkXkXkXkXcX[.D .                                   ",
"    . P rXzXkXkXkXkXkXkXkXkXkXkXkXkXkXkXkXkXkXkXkXkXkXkXkXkXkXkXkXkXkXkXkXkXkXkXkXkXkXkXzX.XG .                                 ",
"      * D.cXkXkXkXkXkXkXkXkXkXkXkXkXkXkXkXkXkXkXkXkXkXkXkXkXkXkXkXkXkXkXkXkXkXkXkXkXkXkXkXcX+XI .                               ",
"      . ^ uXzXkXkXkXkXkXkXkXkXkXkXkXkXkXkXkXkXkXkXkXkXkXkXkXkXkXkXkXkXkXkXkXkXkXkXkXkXkXkXkXzX&XQ .                             ",
"        * b.zXkXkXkXkXkXkXkXkXkXkXkXkXkXkXkXkXkXkXkXkXkXkXkXkXkXkXkXkXkXkXkXkXkXkXkXkXkXkXkXkXcX=X/ .                           ",
"        . V :XzXkXkXkXkXkXkXkXkXkXkXkXkXkXkXkXkXkXkXkXkXkXkXkXkXkXkXkXkXkXkXkXkXkXkXkXkXkXkXkXkXkX<X] .                         ",
"          . ,.hXkXkXkXkXkXkXkXkXkXkXkXkXkXkXkXkXkXkXkXkXkXkXkXkXkXkXkXkXkXkXkXkXkXkXkXkXkXkXkXkXkXzX2X| .                       ",
"          . , M.cXkXkXkXkXkXkXkXkXkXkXkXkXkXkXkXkXkXkXkXkXkXkXkXkXkXkXkXkXkXkXkXkXkXkXkXkXkXkXkXkXkXzX7X%..                     ",
"            . a !.zXkXkXkXkXkXkXkXkXkXkXkXkXkXkXkXkXkXkXkXkXkXkXkXkXkXkXkXkXkXkXkXkXkXkXkXkXkXkXkXkXkXzXwX&.O                   ",
"              . V .XcXkXkXkXkXkXkXkXkXkXkXkXkXkXkXkXkXkXkXkXkXkXkXkXkXkXkXkXkXkXkXkXkXkXkXkXkXkXkXkXkXkXzXrX>.#                 ",
"                . P OXcXkXkXkXkXkXkXkXkXkXkXkXkXkXkXkXkXkXkXkXkXkXkXkXkXkXkXkXkXkXkXkXkXkXkXkXkXkXkXkXkXkXkXuX1.#               ",
"                  . G {.cXkXkXkXkXkXkXkXkXkXkXkXkXkXkXkXkXkXkXkXkXkXkXkXkXkXkXkXkXkXkXkXkXkXkXkXkXkXkXkXkXkXzXdX6.# .           ",
"                    . v Y.cXkXkXkXkXkXkXkXkXkXkXkXkXkXkXkXkXkXkXkXkXkXkXkXkXkXkXkXkXkXkXkXkXkXkXkXkXkXkXkXkXkXkXgX0.* .         ",
"                      . y z.gXzXkXkXkXkXkXkXkXkXkXkXkXkXkXkXkXkXkXkXkXkXkXkXkXkXkXkXkXkXkXkXkXkXkXkXkXkXkXkXkXkXkXhXe.* .       ",
"                        . , >.=XzXkXkXkXkXkXkXkXkXkXkXkXkXkXkXkXkXkXkXkXkXkXkXkXkXkXkXkXkXkXkXkXkXkXkXkXkXkXkXkXzX3X8.* .       ",
"                            . v B.dXcXkXkXkXkXkXkXkXkXkXkXkXkXkXkXkXkXkXkXkXkXkXkXkXkXkXkXkXkXkXkXkXkXkXkXkXcXhXG.P .           ",
"                              . * ] P.gXcXkXkXkXkXkXkXkXkXkXkXkXkXkXkXkXkXkXkXkXkXkXkXkXkXkXkXkXkXzXkXhXzXkX(.%.2 .             ",
"                                  . 2 X.H.uXzXkXkXkXkXkXkXkXkXkXkXkXkXkXkXkXkXkXkXkXkXkXkXkXkXkXkXzXcXdX!.=.9 .                 ",
"                                      . , U s.OXhXcXcXzXkXkXkXkXkXkXkXkXkXhXkXkXzXkXkXkXkXkXzXcXkX&Xz._ 2 .                     ",
"                                          . . a ` a.(.7XkXcXcXzXzXzXzXkXzXzXkXzXzXcXcXcXzXwX[.g.o.g # .                         ",
"                                                . . 5 v | 0.M.Y..X=X2XwXrXrX7X:XOXE.C.e.#.D 5 # .                               ",
"                                                        . . # , 9 a c n V v c g 9 2 # . . .                                     ",
"                                                                                                                                ",
"                                                                                                                                "
};
