/* XPM */
static char *_986f71dc0164a30a82a8cc8860c3afabzC88Fvy6l7s1pwk[] = {
/* columns rows colors chars-per-pixel */
"64 64 32 1 ",
"  c None",
". c #29236C",
"X c #2A237E",
"o c #2A237F",
"O c #2A2380",
"+ c #2A2381",
"@ c #2C2685",
"# c #2B24AA",
"$ c #2B24AF",
"% c #2C24AF",
"& c #2B24B3",
"* c #2D26B0",
"= c #2C25B3",
"- c #2B24B4",
"; c #2B25B4",
": c #2C25B4",
"> c #2D26B4",
", c #2E27B4",
"< c #2E27B5",
"1 c #322BB3",
"2 c #352EB3",
"3 c #332CB6",
"4 c #332DB6",
"5 c #3630B7",
"6 c #3730B7",
"7 c #3630B8",
"8 c #3832B8",
"9 c #3C35B9",
"0 c #6F6ACA",
"q c #736ECD",
"w c #736FCD",
"e c #7470CE",
/* pixels */
"                                                                ",
"                                                                ",
"                                                                ",
"                                                                ",
"                                                                ",
"      eqeqeqqeeqwwwwwwwewweewweewwwwwwwwwwwwwwwwwwwewwwwqq      ",
"     98555555555488455455484548455488455488448476664848672@     ",
"     3>&&&&&&&&&&&=&&=&&=&=&=&=&&=&&=&&=&&=&&=&&&&&&&&&&;$O     ",
"     3,&&>->->->>->->->->->->->->>->->->->->-==========;>$O     ",
"     3,&>;>->->-->->->->->->->->>->->->->->->->&========;$O     ",
"     5,&;>->->->>->->->->->->->-->->->->->->->->========>$O     ",
"     3,&>;>->->-->->->->->->->->>->->->->->->->->=======-$O     ",
"     3,&->->->->>->->->->->->->-->->->->->->->->->&======&+     ",
"     3,&>->->->-->->->->->->->->>->->->->->->->->->=======+     ",
"     3>&->->->->>->->->->->->->-->->->->->->->->->->>&===%O     ",
"     3>&>->->->-->->->->->->->->>->->->->->->->->->-;>===%O     ",
"     3,&>->->->->->->->->->->->->->->->->->->->-->->->&=>$O     ",
"     3,&->->->->->->->->->->->->->->->->->->->->>->->-==-$O     ",
"     3,&>->->->->->->->->->->->->->->->->->->->-->->->==>$O     ",
"     5,&->->->->->->->->->->->->->->->->->->->->>->->->&-$O     ",
"     3,&>->->->->->->->->->->->->->->->->->->->-->->->->=&+     ",
"     3,&->->->->->->->->->->->->->->->->->->->->>->->->-=&+     ",
"     3,&>->->->->->->->->->->->->->->->->->->->-->->->->>$O     ",
"     5,&->->->->->->->->->->->->->->->->->->->->>->->->-;$O     ",
"     3,&>;>;>->->->->->->->->->->->->->->->->->->->->->->$O     ",
"     5,&;>;>->->->->->->->->->->->->->->->->->->->->->->;$O     ",
"     3,&>->;>->->->->->->->->->->->->->->->->->->->->->->$O     ",
"     3,&->->->->->->->->->->->->->->->->->->->->->->->->-$O     ",
"     3,&>->->->->->->->->->->->->->->->->->->->->->->->-=&+     ",
"     3,&->->->->->->->->->->->->->->->->->->->->->->->->=&+     ",
"     3,&>->->->->->->->->->->->->->->->->->->->->->->->;>$O     ",
"     5,&->->->->->->->->->->->->->->->->->->->->->->->->;$O     ",
"     4>&>->->->->->->->->->->->->->->->->->->->->->->->->$O     ",
"     4>&->->->->->->->->->->->->->->->->->->->->->->->->-$O     ",
"     4>&>->->->->->->->->->->->->->->->->->->->->->->->->$O     ",
"     4>&->->->->->->->->->->->->->->->->->->->->->->->->-$O     ",
"     4>&>->->->->->->->->->->->->->->->->->->->->->->->-=&+     ",
"     41-->->->->->->->->->->->->->->->->->->->->->->->->=&+     ",
"     4>&>->->->->->->->->->->->->->->->->->->->->->->===>$O     ",
"     4>&->->->->->->->->->->->->->->->->->->->->->->-===;$O     ",
"     41->->->->->->->->->->->->->->->->->->->->-->->====>$O     ",
"     4>&->->->->->->->->->->->->->->->->->->->->>->-====;$O     ",
"     4>&>->->->->->->->->->->->->->->->->->->->-->->=>&=>$O     ",
"     4>&->->->->->->->->->->->->->->->->->->->->>->->->=-$O     ",
"     4>=>->->->->->->->->->->->->->->->->->->->-->-=>;>==&+     ",
"     4>=->->->->->->->->->->->->->->->->->->->->>-====&==&+     ",
"     4>=>->->->->->->->->->->->->->->->->->->->-->>&====>$O     ",
"     4>=->->->->->->->->->->->->->->->->->->->->>->=====;$O     ",
"     41&>->->->->->->->->->->->->->->->->->->->-->->====>$O     ",
"     4>-->->->->->->->->->->->->->->->->->->->->>->&====-$O     ",
"     4>&>->->->->->->->->->->->->->->->->->->->-->-=====>$O     ",
"     4>&->->->->->->->->->->->->->->->->->->->->>->=====-$O     ",
"     4>&>->->->->->->->->->->->->->->->->->->->--========&+     ",
"     4>&->->->->->->->->->->->->->->->->->->->->=======&=&+     ",
"     4>&>->->->->->->->->->->->->->->->->->->->;=======>>$O     ",
"     41-->->->->->->->;>->->->->->->->->->->->->======>-;$O     ",
"     4>&>->;>;>->;>;>->;;>;>;>;>>->;>;>->;>;>->;;>;>;>==>$O     ",
"     1%&$$$$$$$$$$$$$$$$$$$$$$$$$$$$$$$$$$$$$$$$$%$$$$$&$#X     ",
"      OOOOOOOOOOOOOOOOOOOOOOOOOOOOOOOOOOOOOOOOOOOOOOOOOOOX.     ",
"                                                                ",
"                                                                ",
"                                                                ",
"                                                                ",
"                                                                "
};
