/* XPM */
static char *_8f741a663cf42e2e12f7e64294bb2abH6seezkJ5GbBwXet[] = {
/* columns rows colors chars-per-pixel */
"64 64 11 1 ",
"  c None",
". c #019160",
"X c #009161",
"o c #019161",
"O c #029161",
"+ c #009261",
"@ c #019261",
"# c #009262",
"$ c #019262",
"% c #039262",
"& c #049262",
/* pixels */
"                                                                ",
"                                                                ",
"  ############################################################  ",
"  ############################################################  ",
"  ############################################################  ",
"  ############################################################  ",
"  ##############                                ##############  ",
"  #############                                  #############  ",
"  #############                                  #############  ",
"  #############                                  #############  ",
"  #############                      #&#         #############  ",
"  #############                     ######       #############  ",
"  #############                    ########      #############  ",
"  #############                   #########      #############  ",
"  #############                   #########      #############  ",
"  #############                   #########      #############  ",
"  #############                   #########      #############  ",
"  #############       ###########  ########      #############  ",
"  #############      #############  ######       #############  ",
"  #############     ###############              #############  ",
"  #############     #####OO#OO######&            #############  ",
"  #############    #####      O#########         #############  ",
"  #############    ####       ###########        #############  ",
"  #############   ####       ############        #############  ",
"  #############  #####       ############        #############  ",
"  #############  ####       #############&       #############  ",
"  #############  ###&      #########& ####       #############  ",
"  #############    #       #########  #####      #############  ",
"  #############           #########    ####     &#############  ",
"  #############           #########    #######################  ",
"  #############          #########      ######################  ",
"  #############         ##########      ######################  ",
"  #############         #########               ##############  ",
"  #############        #########                 #############  ",
"  #############        #########                 #############  ",
"  #############        #########                 #############  ",
"  #############        #########                 #############  ",
"  #############        ####O#####                #############  ",
"  #############        #### #####                #############  ",
"  #############        ####  #####               #############  ",
"  #############        ####  ######              #############  ",
"  #############        ####   #####              #############  ",
"  ##########           ####    #####             #############  ",
"  ######### #O#&##&#&######     #####            #############  ",
"  ########& ###############     #####            #############  ",
"  ######### ###############      #####           #############  ",
"  ######### ###############       ####&          #############  ",
"  #########                       #####          #############  ",
"  ############O                    #####         #############  ",
"  #############                     ####&        #############  ",
"  #############                     #####        #############  ",
"  #############                      #####       #############  ",
"  #############                       #####      #############  ",
"  #############                        &&&&      #############  ",
"  #############                       &&#&&     ##############  ",
"  ############                       #####     ###############  ",
"  ###########                       #####     ################  ",
"  ##########O                      ######   ##################  ",
"  ############################################################  ",
"  ############################################################  ",
"  ############################################################  ",
"  ############################################################  ",
"                                                                ",
"                                                                "
};
